<svg width="16" height="10" viewBox="0 0 16 10" fill="none" xmlns="http://www.w3.org/2000/svg">
<path d="M15.9533 4.69913L13.3444 0.180287C13.2808 0.068933 13.161 0 13.0326 0H7.81279C7.68447 0 7.56464 0.068933 7.501 0.180287L5.25908 4.06388C5.22408 4.12539 5.14667 4.15721 5.07879 4.13812C5.0088 4.11903 4.96002 4.0554 4.96002 3.98328V2.48054C4.96002 1.11354 3.84754 0.00106074 2.48054 0.00106074H0.360574C0.162258 0.00106074 0 0.162258 0 0.361634V2.4816C0 3.47 0.588584 4.35446 1.50062 4.73413C1.56001 4.75852 1.59925 4.81685 1.59925 4.88154C1.59925 4.94623 1.56001 5.00456 1.50062 5.02895C0.588584 5.40543 0 6.28884 0 7.2783V9.39826C0 9.59658 0.161198 9.75884 0.360574 9.75884H2.48054C3.84754 9.75884 4.96002 8.64636 4.96002 7.27936V5.77661C4.96002 5.7045 5.0088 5.64086 5.07879 5.62178C5.14667 5.60375 5.22408 5.6345 5.25908 5.69601L7.501 9.57961C7.5657 9.69096 7.68447 9.7599 7.81279 9.7599H13.0316C13.1599 9.7599 13.2797 9.69096 13.3434 9.57961L15.9522 5.06077C15.984 5.00562 15.9999 4.94411 15.9999 4.88154C16.001 4.81685 15.9851 4.75428 15.9533 4.69913ZM10.462 6.77455C9.44386 6.77455 8.6156 5.92402 8.6156 4.87942C8.6156 3.83481 9.44386 2.98428 10.462 2.98428C11.48 2.98428 12.3083 3.83481 12.3083 4.87942C12.3083 5.92402 11.48 6.77455 10.462 6.77455Z" fill="#1D0070"/>
</svg>
