<svg width="916" height="100" viewBox="0 0 916 100" fill="none" xmlns="http://www.w3.org/2000/svg">
<path d="M385.171 0.55957C355.233 0.55957 334.353 22.3938 334.353 50.2798C334.353 78.1554 355.233 100 385.171 100C415.109 100 435.99 78.1658 435.99 50.2798C435.99 22.3938 415.109 0.55957 385.171 0.55957ZM386.073 84.7979C373.855 85.1192 366.57 73.6166 365.98 51.0052C365.327 26.114 372.052 16.0725 384.104 15.7513C396.632 15.4197 403.72 25.2642 404.363 50C404.964 72.7565 398.446 84.4767 386.073 84.7979Z" fill="white"/>
<path d="M225.544 2.20724H185.99C183.793 2.20724 182.415 3.58548 182.415 5.78237V11.0052C182.415 13.3368 183.233 14.1658 185.295 14.9844L187.907 15.9482C190.788 17.0466 191.751 18.5596 191.751 21.5751V78.9844C191.751 82.0103 190.788 83.5129 187.907 84.6114L185.295 85.5751C183.233 86.3938 182.415 87.2228 182.415 89.5544V94.7772C182.415 96.9741 183.793 98.3523 185.99 98.3523H225.544C227.741 98.3523 229.119 96.9741 229.119 94.7772V89.5544C229.119 87.2228 228.301 86.3938 226.238 85.5751L223.627 84.6114C220.746 83.5129 219.782 82 219.782 78.9844V21.5751C219.782 18.5492 220.746 17.0466 223.627 15.9482L226.238 14.9844C228.301 14.1658 229.119 13.3368 229.119 11.0052V5.78237C229.109 3.57512 227.741 2.20724 225.544 2.20724Z" fill="white"/>
<path d="M331.244 85.7098L329.731 84.8912C326.021 82.829 323.275 81.3161 319.71 75.6891L306.798 54.9534C306.114 53.8549 306.518 53.0259 307.762 52.7565C318.611 49.8756 324.788 43.5544 324.788 32.2901C324.788 11.0155 308.197 2.20724 272.767 2.20724L241.285 2.47668C239.088 2.75647 237.99 3.98963 237.99 6.0518V11.2746C237.99 13.6062 238.808 14.4352 240.601 15.1192L243.762 16.3523C246.373 17.4508 247.337 18.829 247.337 21.5751V78.9844C247.337 82.0103 246.373 83.5129 243.492 84.6114L240.881 85.5751C238.819 86.3938 238 87.2228 238 89.5544V94.7772C238 96.9741 239.378 98.3523 241.575 98.3523H281.13C283.461 98.3523 284.705 96.9741 284.705 94.7772V89.5544C284.705 87.2228 283.876 86.3938 281.824 85.5751L279.213 84.6114C276.332 83.5129 275.368 82 275.368 78.9844V57.6995C275.368 56.4663 275.782 56.0518 276.746 56.0518C277.845 56.0518 278.529 56.8705 279.492 58.5285L298.311 92.5907C300.643 96.8497 302.435 98.3627 307.233 98.3627H331.264C333.596 98.3627 334.56 97.1295 334.56 95.3368V90.3938C334.539 88.1762 333.855 87.2228 331.244 85.7098ZM280.425 44.5078H277.399C276.27 44.5078 275.451 43.6995 275.451 42.5596V16.3212C275.451 15.1917 276.259 14.373 277.399 14.373H280.57C291.254 14.373 297.876 18.2487 297.876 28.9844C297.876 39.7306 292.757 44.5078 280.425 44.5078Z" fill="white"/>
<path d="M910.042 15.9378L912.653 14.9741C914.715 14.1555 915.534 13.3264 915.534 10.9948V5.77203C915.534 3.57514 914.301 2.1969 911.959 2.1969H872.404C870.208 2.1969 868.829 3.57514 868.829 5.77203V10.9948C868.829 13.3264 869.648 14.1555 871.71 14.9741L874.322 15.9378C877.202 17.0363 878.166 18.5492 878.166 21.5648V38.8705C878.166 39.8342 877.482 40.5181 876.519 40.5181H847.399C846.436 40.5181 845.752 39.8342 845.752 38.8705V21.5648C845.752 18.5389 846.715 17.0363 849.596 15.9378L852.208 14.9741C854.27 14.1555 855.088 13.3264 855.088 10.9948V5.77203C855.088 3.57514 853.855 2.1969 851.513 2.1969H811.959C809.762 2.1969 808.384 3.57514 808.384 5.77203V10.9948C808.384 13.3264 809.202 14.1555 811.265 14.9741L813.876 15.9378C816.757 17.0363 817.721 18.5492 817.721 21.5648V78.9741C817.721 82 816.757 83.5026 813.876 84.601L811.265 85.5648C809.202 86.3834 808.384 87.2124 808.384 89.5441V94.7668C808.384 96.9637 809.762 98.342 811.959 98.342H851.513C853.845 98.342 855.088 96.9637 855.088 94.7668V89.5441C855.088 87.2124 854.259 86.3834 852.208 85.5648L849.596 84.601C846.715 83.5026 845.752 81.9896 845.752 78.9741V56.1762C845.752 55.2124 846.436 54.5285 847.399 54.5285H876.519C877.482 54.5285 878.166 55.2124 878.166 56.1762V78.9741C878.166 82 877.202 83.5026 874.322 84.601L871.71 85.5648C869.648 86.3834 868.829 87.2124 868.829 89.5441V94.7668C868.829 96.9637 870.208 98.342 872.404 98.342H911.959C914.29 98.342 915.534 96.9637 915.534 94.7668V89.5441C915.534 87.2124 914.715 86.3834 912.653 85.5648L910.042 84.601C907.161 83.5026 906.197 81.9896 906.197 78.9741V21.5648C906.197 18.5492 907.161 17.0363 910.042 15.9378Z" fill="white"/>
<path d="M772.725 37.3679L755.969 32.4249C747.731 29.9586 743.337 27.0674 743.337 22.2591C743.337 17.5855 747.731 14.6218 754.466 14.57C763.907 14.4974 772.332 18.829 784.415 31.8757C786.062 33.658 787.845 34.3523 790.321 32.9741L793.202 31.3264C795.679 29.9586 796.052 27.9171 794.85 25.8342L782.85 5.09845C781.472 2.65286 780.518 0.974098 777.627 0.974098H776.301C773.005 0.974098 772.591 2.48705 769.295 2.48705C765.036 2.48705 760.466 0.839386 752.674 0.839386C731.109 0.839386 717.098 11.2746 717.098 29.6788C717.098 45.057 728.228 53.7099 741.959 58.2487L759.813 64.1554C768.601 67.0363 773.275 70.342 773.275 76.3834C773.275 82.8394 768.332 85.7202 760.228 85.7202C747.865 85.7202 737.15 78.715 725.896 63.886C724.114 61.5544 722.321 61.1399 719.99 62.2383L715.461 64.4352C713.399 65.399 712.819 67.4715 714.093 70.0622L726.736 96.0207C727.876 98.3523 729.482 99.3161 731.409 99.3161H733.047C736.073 99.3161 738.124 97.2539 740.881 97.2539C745.959 97.2539 751.047 99.7306 762.446 99.7306C785.244 99.7306 801.451 89.1503 801.451 68.829C801.43 50 788.933 42.0311 772.725 37.3679Z" fill="white"/>
<path d="M703.182 2.20724H663.627C661.43 2.20724 660.052 3.58548 660.052 5.78237V11.0052C660.052 13.3368 660.871 14.1658 662.933 14.9844L665.544 15.9482C668.425 17.0466 669.389 18.5596 669.389 21.5751V78.9844C669.389 82.0103 668.425 83.5129 665.544 84.6114L662.933 85.5751C660.871 86.3938 660.052 87.2228 660.052 89.5544V94.7772C660.052 96.9741 661.43 98.3523 663.627 98.3523H703.182C705.379 98.3523 706.757 96.9741 706.757 94.7772V89.5544C706.757 87.2228 705.938 86.3938 703.876 85.5751L701.265 84.6114C698.384 83.5129 697.42 82 697.42 78.9844V21.5751C697.42 18.5492 698.384 17.0466 701.265 15.9482L703.876 14.9844C705.938 14.1658 706.757 13.3368 706.757 11.0052V5.78237C706.747 3.57512 705.379 2.20724 703.182 2.20724Z" fill="white"/>
<path d="M643.523 2.6114C642.612 1.02591 641.741 0 639.679 0H636.943C635.43 0 634.591 0.352336 633.451 1.24353C632.207 2.1969 631.13 2.19689 628.435 2.19689H577.285C575.088 2.19689 573.71 3.57514 573.71 5.77203V10.9948C573.71 13.3264 574.529 14.1554 576.591 14.9741L579.202 15.9378C582.083 17.0363 583.047 18.5492 583.047 21.5648V78.9741C583.047 82 582.083 83.5026 579.202 84.601L576.591 85.5648C574.529 86.3834 573.71 87.2124 573.71 89.544V94.7668C573.71 96.9637 575.088 98.342 577.285 98.342H618.767C621.099 98.342 622.342 96.9637 622.342 94.7668V89.544C622.342 87.2124 621.658 86.114 619.461 85.5648L614.933 84.3316C611.907 83.513 611.088 82 611.088 78.9741V54.7979C611.088 53.8342 611.772 53.1503 612.736 53.1503H615.067C625.782 53.1503 632.373 58.6425 639.099 66.4767C640.062 67.5751 641.295 67.9896 642.943 67.1606L646.373 65.3782C647.886 64.5596 648.446 63.2332 647.751 61.8031L637.109 39.9585C636.498 38.7047 635.741 37.9586 634.166 37.9586H632.477C631.316 37.9586 630.58 38.2694 629.523 39.1192C628.58 39.8549 627.42 40.3834 625.948 40.3834H612.736C611.772 40.3834 611.088 39.6995 611.088 38.7358V21.1606C611.088 16.2176 613.016 14.2902 618.228 14.2902C627.161 14.2902 639.378 22.1244 646.518 29.2643C647.751 30.4974 649.264 30.7772 650.912 29.8135L654.622 27.4819C655.855 26.6632 656.694 25.3575 655.855 23.9067L643.523 2.6114Z" fill="white"/>
<path d="M536.186 86.8083L533.026 85.7099C530.145 84.7461 529.181 83.0985 529.181 80.0829V20.342C529.181 17.3161 530.145 15.8031 533.026 14.7151L535.637 13.7513C537.699 12.9327 538.518 12.1037 538.518 9.77205V5.79278C538.518 3.59589 537.285 2.21765 534.943 2.21765H508.57C506.373 2.21765 504.995 3.59589 504.995 5.79278V9.77205C504.995 12.1037 505.824 12.9327 507.875 13.7513L510.487 14.7151C513.368 15.8135 514.331 17.3265 514.331 20.342V53.9897C514.331 54.5596 513.875 55.0156 513.306 55.0156C512.984 55.0156 512.704 54.8705 512.518 54.6425L477.461 5.51299C476.59 4.18656 475.699 3.30573 474.787 2.8705C473.875 2.43527 472.611 2.21765 471.015 2.21765H444.85C442.653 2.21765 441.274 3.59589 441.274 5.79278V11.0156C441.274 13.3472 442.103 14.1762 444.155 14.9948L446.767 15.9586C449.647 17.057 450.611 18.57 450.611 21.5855V80.2176C450.611 83.2436 449.647 84.7461 446.767 85.8446L444.155 86.8083C442.093 87.627 441.274 88.456 441.274 90.7876V94.7669C441.274 96.9638 442.653 98.342 444.85 98.342H471.223C473.554 98.342 474.798 96.9638 474.798 94.7669V90.7876C474.798 88.456 473.979 87.627 471.917 86.8083L469.306 85.8446C466.425 84.7461 465.461 83.2332 465.461 80.2176V42.3524C465.461 41.7824 465.917 41.3265 466.487 41.3265C466.808 41.3265 467.088 41.4715 467.274 41.6995L506.093 95.0467C506.964 96.3731 507.855 97.2539 508.767 97.6892C509.679 98.1244 510.943 98.342 512.539 98.342H535.492C537.824 98.342 539.067 96.9638 539.067 94.7669V90.7876C539.067 88.456 538.249 87.4923 536.186 86.8083Z" fill="white"/>
<path d="M155.886 48.9016L130.394 4.74612C129.772 3.65804 128.601 2.98447 127.347 2.98447H76.342C75.0881 2.98447 73.9171 3.65804 73.2953 4.74612L51.3886 42.6943C51.0466 43.2953 50.2902 43.6062 49.6269 43.4197C48.943 43.2332 48.4663 42.6114 48.4663 41.9067V27.2228C48.4663 13.8653 37.5959 2.99483 24.2383 2.99483H3.52332C1.58549 2.99483 0 4.56995 0 6.51814V27.2332C0 36.8912 5.7513 45.5337 14.6632 49.2435C15.2435 49.4819 15.6269 50.0518 15.6269 50.684C15.6269 51.3161 15.2435 51.886 14.6632 52.1244C5.7513 55.8031 0 64.4353 0 74.1037V94.8187C0 96.7565 1.57513 98.342 3.52332 98.342H24.2383C37.5959 98.342 48.4663 87.4715 48.4663 74.114V59.4301C48.4663 58.7254 48.943 58.1036 49.6269 57.9171C50.2902 57.7409 51.0466 58.0415 51.3886 58.6425L73.2953 96.5907C73.9275 97.6788 75.0881 98.3524 76.342 98.3524H127.337C128.591 98.3524 129.762 97.6788 130.383 96.5907L155.876 52.4353C156.187 51.8964 156.342 51.2954 156.342 50.684C156.352 50.0518 156.197 49.4404 155.886 48.9016ZM102.228 69.1814C92.2798 69.1814 84.1865 60.8705 84.1865 50.6632C84.1865 40.456 92.2798 32.1451 102.228 32.1451C112.176 32.1451 120.269 40.456 120.269 50.6632C120.269 60.8705 112.176 69.1814 102.228 69.1814Z" fill="white"/>
</svg>
